. 
 
http://www.torrenting.com          :     Once & For all ;)


               www . Torrenting . Com 

(((((((((((((= Enjoy No RAR releases =))))))))))))))))))))


...................................NFO:....................................

.                                                                                                     
       
     
     
       
       
     
     
                                         
                                         
                EXVID                    
                                         
         
                                         
         Filled the Archives             
                                         
         
                                         
                With:                    
                                         
         
                                         
                                    
     E240                           
                                    
     SP               (C) 2009      
                                         
     
     
     
                                                                                  
                                                                                   
             The.Great.Waldo.Pepper.1975.iNTERNAL.DVDRip.XviD-EXViDiNT              
                                                                                   
                                                                                  
     
                                                                                               
EXViD aims to iNTERNAL those releases which have been lost in the archives.
EXViD aims to PRE non-internal releases which have poor sources and are likely skipped by others. 
http://www.imdb.com/title/tt0073075/
Subtitles: None
Date: 2012.02

Director: George Roy Hill

Genres: Adventure | Drama

Plot:
A biplane pilot who had missed flying in WWI takes up barnstorming and later a movie career in
his quest for the glory he had missed, eventually getting a chance to prove himself in a film
depicting the dogfights in the Great War.

Cast:
Robert Redford	...	Waldo Pepper
Bo Svenson	...	Axel Olsson
Bo Brundin	...	Ernst Kessler
Susan Sarandon	...	Mary Beth
Geoffrey Lewis	...	Newt
Edward Herrmann	...	Ezra Stiles
Philip Bruns	...	Dillhoefer
Roderick Cook	...	Werfel
Kelly Jean Peters	...	Patsy
Margot Kidder	...	Maude
Scott Newman	...	Duke
James S. Appleby	...	Ace
Patrick W. Henderson Jr.	...	Scooter
James N. Harrell	...	Farmer (as James Harrell)
Elma Aicklen	...	Farmer's Wife

Stats:
Format                                   : AVI
Format/Info                              : Audio Video Interleave
File size                                : 703 MiB
Duration                                 : 1h 47mn
Overall bit rate mode                    : Variable
Overall bit rate                         : 911 Kbps

Video
ID                                       : 0
Format                                   : MPEG-4 Visual
Format profile                           : Advanced Simple@L5
Format settings, BVOP                    : 2
Format settings, QPel                    : No
Format settings, GMC                     : No warppoints
Format settings, Matrix                  : Default (H.263)
Codec ID                                 : XVID
Codec ID/Hint                            : XviD
Duration                                 : 1h 47mn
Bit rate                                 : 780 Kbps
Width                                    : 640 pixels
Height                                   : 272 pixels
Display aspect ratio                     : 2.35:1
Frame rate                               : 23.976 fps
Color space                              : YUV
Chroma subsampling                       : 4:2:0
Bit depth                                : 8 bits
Scan type                                : Progressive
Compression mode                         : Lossy
Bits/(Pixel*Frame)                       : 0.187
Stream size                              : 601 MiB (86%)
Writing library                          : XviD 64

Audio
ID                                       : 1
Format                                   : MPEG Audio
Format version                           : Version 1
Format profile                           : Layer 3
Codec ID                                 : 55
Codec ID/Hint                            : MP3
Duration                                 : 1h 47mn
Bit rate mode                            : Variable
Bit rate                                 : 119 Kbps
Channel(s)                               : 1 channel
Sampling rate                            : 48.0 KHz
Compression mode                         : Lossy
Stream size                              : 91.7 MiB (13%)
Alignment                                : Aligned on interleaves
Interleave, duration                     : 24 ms (0.58 video frame)
Interleave, preload duration             : 419 ms



Release notes:
Enjoy!

Looking for:
75TB+ Archives
DUTCH/FLEMiSH Archives
                                                                                                    
Greets: CRBS EPiSODE FiCO FLS iLS KLASSiGER LiPSYNC MADE NODLABS RUNNER SPRiNTER      
   

                                                                    ASCII DONE BY XX^NFO 2oo9     
 

RLS-Crc: 415243414445:42EECD90